Coordinates
version=1
nRows=21
nColumns=34
inDegrees=yes
inDegrees=no

Units are S.I. units (second, meters, Newtons, ...)
If the header above contains a line with 'inDegrees', this indicates whether rotational values are in degrees (yes) or radians (no).

endheader
time	pelvis_tilt	pelvis_list	pelvis_rotation	pelvis_tx	pelvis_ty	pelvis_tz	hip_flexion_r	hip_adduction_r	hip_rotation_r	knee_angle_r	ankle_angle_r	subtalar_angle_r	mtp_angle_r	hip_flexion_l	hip_adduction_l	hip_rotation_l	knee_angle_l	ankle_angle_l	subtalar_angle_l	mtp_angle_l	lumbar_extension	lumbar_bending	lumbar_rotation	arm_flex_r	arm_add_r	arm_rot_r	elbow_flex_r	pro_sup_r	arm_flex_l	arm_add_l	arm_rot_l	elbow_flex_l	pro_sup_l
7.866667 -0.160679 -0.078622 0.090454 0.001672 0.017648 -0.007595 0.286084 -0.084989 -0.471174 0.326172 0.077409 -0.361401 0.000000 0.289109 -0.259952 -0.297443 0.298653 0.043259 -0.148236 0.000000 -0.143107 0.083488 0.030579 0.383912 -0.228853 0.594865 1.968315 1.578312 0.256462 -0.180990 0.508393 2.091891 1.303563
7.883333 -0.169904 -0.078922 0.088657 0.001521 0.017523 -0.007585 0.323374 -0.096116 -0.462808 0.369766 0.085294 -0.382539 0.000000 0.324615 -0.264854 -0.285819 0.337728 0.050491 -0.170460 0.000000 -0.154172 0.083567 0.032600 0.402569 -0.229276 0.593783 1.971874 1.580678 0.276754 -0.176437 0.513536 2.094491 1.308750
7.900000 -0.179894 -0.078321 0.086046 0.001432 0.017403 -0.007555 0.367731 -0.109586 -0.450161 0.425644 0.094440 -0.408844 0.000000 0.365297 -0.269892 -0.273175 0.383454 0.057730 -0.198717 0.000000 -0.165867 0.081418 0.033675 0.425243 -0.228487 0.593197 1.972676 1.584521 0.299412 -0.173273 0.517855 2.094740 1.314709
7.916667 -0.191961 -0.076217 0.084426 0.001390 0.017259 -0.007538 0.416399 -0.126360 -0.437117 0.489693 0.107622 -0.433383 0.000000 0.412355 -0.273858 -0.261000 0.436538 0.067500 -0.226372 0.000000 -0.176549 0.077352 0.033652 0.447957 -0.227444 0.591011 1.974553 1.589523 0.320371 -0.171604 0.521120 2.096620 1.321129
7.933333 -0.203883 -0.075661 0.082018 0.001299 0.017099 -0.007486 0.467565 -0.141658 -0.425615 0.557243 0.121581 -0.459397 0.000000 0.465834 -0.282274 -0.248417 0.501548 0.078065 -0.257540 0.000000 -0.186907 0.074028 0.033766 0.474319 -0.226414 0.589849 1.977287 1.595703 0.343855 -0.171755 0.522875 2.098444 1.327849
7.950000 -0.215336 -0.075078 0.082886 0.001231 0.016976 -0.007479 0.514947 -0.157673 -0.415930 0.620522 0.144734 -0.473445 0.000000 0.519756 -0.289357 -0.233772 0.566440 0.092369 -0.282691 0.000000 -0.197850 0.070288 0.032698 0.495931 -0.226918 0.585416 1.979463 1.601693 0.367913 -0.172162 0.524471 2.098568 1.333717
7.966667 -0.227302 -0.074603 0.082459 0.001169 0.016876 -0.007462 0.560762 -0.172469 -0.408372 0.679849 0.169090 -0.477654 0.000000 0.570765 -0.296429 -0.218226 0.627441 0.109683 -0.292418 0.000000 -0.212364 0.066147 0.031703 0.517817 -0.227865 0.581182 1.983326 1.608324 0.393043 -0.170633 0.524668 2.097977 1.339580
7.983333 -0.238883 -0.072626 0.085812 0.001102 0.016674 -0.007448 0.605661 -0.191544 -0.402625 0.742262 0.204505 -0.464718 0.000000 0.621329 -0.299995 -0.201807 0.687741 0.122701 -0.308387 0.000000 -0.226825 0.058662 0.034333 0.533279 -0.230954 0.564360 1.991312 1.646680 0.423280 -0.166635 0.531297 2.089326 1.371248
8.000000 -0.248128 -0.072108 0.083766 0.001024 0.016458 -0.007438 0.652899 -0.205278 -0.390781 0.805083 0.230833 -0.467816 0.000000 0.671775 -0.309089 -0.189846 0.753019 0.146375 -0.312303 0.000000 -0.244863 0.054575 0.033726 0.564109 -0.234949 0.568591 1.992442 1.652396 0.449109 -0.169806 0.534575 2.090194 1.375396
8.016667 -0.258842 -0.070328 0.083690 0.000968 0.016247 -0.007426 0.699520 -0.222479 -0.382523 0.869938 0.258519 -0.462409 0.000000 0.721631 -0.314668 -0.175950 0.814213 0.173595 -0.310695 0.000000 -0.261155 0.050790 0.030012 0.593906 -0.237838 0.569026 1.990944 1.658902 0.475759 -0.172256 0.537519 2.088417 1.380016
8.033333 -0.267395 -0.068409 0.080503 0.000905 0.016063 -0.007395 0.744060 -0.236922 -0.372865 0.931938 0.286702 -0.454582 0.000000 0.765113 -0.321772 -0.164588 0.872201 0.200852 -0.305931 0.000000 -0.280487 0.046081 0.026699 0.626914 -0.238895 0.573402 1.984569 1.665629 0.509995 -0.178716 0.540754 2.083006 1.384438
8.050000 -0.277067 -0.066910 0.080461 0.000888 0.015840 -0.007372 0.787215 -0.251444 -0.365456 0.992754 0.316063 -0.449053 0.000000 0.807454 -0.328293 -0.154664 0.926801 0.220530 -0.305492 0.000000 -0.299787 0.040780 0.020936 0.658685 -0.238503 0.576500 1.978399 1.673201 0.544457 -0.186844 0.545774 2.079489 1.389336
8.066667 -0.286813 -0.067894 0.082286 0.000814 0.015647 -0.007347 0.827247 -0.262888 -0.360558 1.046245 0.341706 -0.445614 0.000000 0.850974 -0.334999 -0.141015 0.977461 0.238884 -0.303645 0.000000 -0.319687 0.036840 0.015230 0.691752 -0.240086 0.579650 1.972020 1.680647 0.582177 -0.195022 0.553830 2.076352 1.394368
8.083333 -0.293257 -0.066642 0.081334 0.000721 0.015429 -0.007340 0.866338 -0.274640 -0.351349 1.097792 0.362393 -0.441989 0.000000 0.893566 -0.339513 -0.126559 1.030180 0.260817 -0.298763 0.000000 -0.339898 0.031261 0.010908 0.735197 -0.244345 0.588898 1.957726 1.689099 0.630439 -0.204668 0.562821 2.062255 1.399605
8.100000 -0.298802 -0.065951 0.083403 0.000708 0.015209 -0.007371 0.901366 -0.287654 -0.341792 1.148863 0.382297 -0.433356 0.000000 0.932896 -0.342134 -0.113263 1.080975 0.283244 -0.290607 0.000000 -0.361537 0.028603 0.004862 0.782067 -0.250448 0.596621 1.940003 1.700902 0.674390 -0.214012 0.570343 2.046858 1.406477
8.116667 -0.301247 -0.064378 0.082971 0.000613 0.015073 -0.007335 0.931797 -0.295690 -0.329934 1.193606 0.403057 -0.418083 0.000000 0.966420 -0.344180 -0.099129 1.124543 0.304099 -0.278635 0.000000 -0.390730 0.023331 0.000133 0.833732 -0.256206 0.609967 1.924265 1.712937 0.720994 -0.224552 0.576159 2.036405 1.413372
8.133333 -0.299025 -0.060027 0.083044 0.000511 0.014956 -0.007344 0.957636 -0.304873 -0.316230 1.232190 0.413914 -0.412266 0.000000 0.989541 -0.342277 -0.090268 1.159903 0.320990 -0.270564 0.000000 -0.427034 0.017875 -0.005142 0.891666 -0.259444 0.618638 1.896724 1.722545 0.775199 -0.232902 0.575037 2.018239 1.418411
8.150000 -0.292001 -0.056918 0.083947 0.000363 0.014783 -0.007328 0.981390 -0.312380 -0.304388 1.271500 0.421138 -0.408377 0.000000 1.011245 -0.341759 -0.078440 1.196186 0.327631 -0.269820 0.000000 -0.468903 0.014846 -0.007455 0.962072 -0.264438 0.631273 1.868599 1.733752 0.835140 -0.242478 0.577995 1.996871 1.424559
8.166667 -0.286236 -0.052940 0.086185 0.000267 0.014507 -0.007343 1.016245 -0.324484 -0.287876 1.322750 0.428932 -0.410852 0.000000 1.039176 -0.339775 -0.066548 1.241326 0.341240 -0.267072 0.000000 -0.507491 0.013670 -0.012939 1.030445 -0.266593 0.638339 1.841241 1.744329 0.902411 -0.252316 0.583672 1.981749 1.431180
8.183333 -0.286791 -0.047432 0.082924 0.000117 0.014229 -0.007363 1.064481 -0.334004 -0.266444 1.379800 0.432086 -0.420690 0.000000 1.080092 -0.337145 -0.056510 1.295997 0.353565 -0.280080 0.000000 -0.544952 0.007330 -0.018214 1.110171 -0.268225 0.651408 1.827493 1.755147 0.976367 -0.262161 0.590265 1.975207 1.438700
8.200000 -0.290028 -0.043363 0.084070 0.000028 0.013924 -0.007395 1.119422 -0.347849 -0.245673 1.440561 0.434371 -0.427737 0.000000 1.126182 -0.332820 -0.043216 1.351559 0.368460 -0.284884 0.000000 -0.575877 0.006145 -0.025176 1.180672 -0.269144 0.657936 1.818427 1.763184 1.046425 -0.264908 0.590823 1.968362 1.444724
